<svg id="Layer_1" data-name="Layer 1" xmlns="http://www.w3.org/2000/svg" viewBox="0 0 1920 1080"><defs><style>.cls-8{fill:#b9d6ed;}.cls-9,.cls-3,.cls-4{fill:#efefef;}.cls-3{opacity:0.3;}.cls-4{opacity:0.6;}.cls-5{fill:#969595;}.cls-6{fill:#a25541;}.cls-7{fill:#619530;}</style></defs><title>Artboard 1</title><rect className="cls-1" y="2" width="1924.66" height="1078.31"/><path className="cls-9" d="M1925.2,3.11V0H1.25V31.34H56.72A110,110,0,0,0,158.55,99.77a109.77,109.77,0,0,0,87.11-42.86,71.5,71.5,0,0,0,41,12.86,71.52,71.52,0,0,0,45-15.86,71.55,71.55,0,0,0,45,15.86,71.83,71.83,0,0,0,63.6-38.43H606.91a55.87,55.87,0,0,0,88.94,31.33,55.91,55.91,0,0,0,55.7,13.53A55.89,55.89,0,0,0,853.3,31.34h275.61a55.87,55.87,0,0,0,91.34,15.93,55.78,55.78,0,0,0,20.11,9.38,55.7,55.7,0,0,0,36.93-3.77,55.89,55.89,0,0,0,98.59-21c0-.19.08-.37.12-.55h68.52a55.88,55.88,0,0,0,95.73,45.93,55.91,55.91,0,0,0,57,5.61,55.9,55.9,0,0,0,100-38.19,55.64,55.64,0,0,0,29.51,18.2,55.86,55.86,0,0,0,53.44-15.62,55.78,55.78,0,0,0,20.11,9.38,55.69,55.69,0,0,0,29.35-.85,55.54,55.54,0,0,0,28.72,17.29,55.88,55.88,0,0,0,66.77-70Z"/><path className="cls-3" d="M535.05,801.61a55.89,55.89,0,0,0-95.73-45.94,55.95,55.95,0,0,0-57-5.6,55.88,55.88,0,0,0-98.6,21,56.3,56.3,0,0,0-1.42,17.19,55.86,55.86,0,0,0-82.94-2.58,56,56,0,0,0-49.46-8.53,55.88,55.88,0,0,0-96.18,23.92"/><path className="cls-2" d="M731.21,595.63a55.87,55.87,0,0,0-91.34-15.93,55.91,55.91,0,0,0-57-5.61,55.89,55.89,0,0,0-98.59,21c-.05.18-.08.37-.12.55"/><path className="cls-4" d="M1398.17,449.39a55.87,55.87,0,0,0-88.94-31.33,55.91,55.91,0,0,0-55.7-13.53c-12-21.26-38.09-35-71.61-25.54-30.05,18.14-37.79,46.93-30.14,70.4"/><path className="cls-2" d="M1871.44,645.84a110,110,0,0,0-188.94-25.56,71.77,71.77,0,0,0-86,3,71.81,71.81,0,0,0-108.59,22.57"/><polyline className="cls-5" points="1332.39 982.23 1924.66 982.85 1924.46 858.35 1915.57 858.35 1915.57 871.71 1901.6 871.71 1901.6 912.5 1867.29 912.5 1867.29 926.6 1848.24 926.6 1848.24 890.25 1805.04 890.25 1805.04 858.35 1792.34 858.35 1792.34 849.2 1763.12 849.2 1763.12 857.61 1754.22 857.61 1754.22 865.03 1744.06 865.03 1744.06 917.57 1728.81 917.57 1728.81 905.83 1704.68 905.83 1704.68 859.1 1646.24 859.1 1646.24 891.73 1623.37 891.73 1623.37 861.32 1585.26 861.32 1585.26 908.79 1564.92 908.79 1564.92 863.55 1529.35 863.55 1529.35 872.45 1519.19 872.45 1519.19 889.51 1507.76 889.51 1507.76 908.05 1487.43 908.05 1487.43 856.13 1450.59 856.13 1450.59 849.2 1437.88 849.2 1437.88 865.03 1428.99 865.03 1428.99 901.38 1413.75 901.38 1413.75 879.12 1368.01 879.12 1368.01 868.74 1334.98 868.74 1334.98 882.09 1303.21 882.09 1303.21 954.78 1294.32 954.78 1294.32 957.01 1293.01 957.01 1293.01 943.66 1263.79 943.66 1263.79 934.76 1224.4 934.76 1224.4 920.66 1199 920.66 1199 947.37 1179.94 947.37 1179.94 925.86 1169.77 925.86 1169.77 939.21 1129.12 939.21 1129.12 950.34 1112.61 950.34 1112.61 937.72 1091.01 937.72 1091.01 925.86 1065.6 925.86 1065.6 915.47 1031.29 915.47 1031.29 921.41 1016.05 921.41 1016.05 902.86 1010.97 902.86 1010.97 935.5 996.99 935.5 996.99 922.15 980.48 922.15 980.48 931.79 969.04 931.79 969.04 942.92 952.53 942.92 952.53 902.86 911.88 902.86 911.88 912.5 891.55 912.5 891.55 891.73 882.65 891.73 882.65 926.6 844.54 926.6 844.54 894.7 835.65 894.7 835.65 866.51 825.49 866.51 825.49 853.9 798.8 853.9 798.8 866.51 791.18 866.51 791.18 891.73 779.75 891.73 779.75 913.24 735.28 913.24 735.28 872.45 725.12 872.45 725.12 861.32 716.23 861.32 716.23 849.2 703.52 849.2 703.52 819.78 693.36 819.78 693.36 849.2 684.46 849.2 684.46 858.35 675.57 858.35 675.57 871.71 661.6 871.71 661.6 912.5 627.29 912.5 627.29 926.6 608.24 926.6 608.24 890.25 565.04 890.25 565.04 858.35 552.34 858.35 552.34 849.2 523.12 849.2 523.12 857.61 514.22 857.61 514.22 865.03 504.06 865.03 504.06 917.57 488.81 917.57 488.81 905.83 464.68 905.83 464.68 859.1 406.24 859.1 406.24 891.73 383.37 891.73 383.37 861.32 345.26 861.32 345.26 908.79 324.93 908.79 324.93 863.55 289.35 863.55 289.35 872.45 279.19 872.45 279.19 889.51 267.76 889.51 267.76 908.05 247.43 908.05 247.43 856.13 210.59 856.13 210.59 849.2 197.88 849.2 197.88 865.03 188.99 865.03 188.99 901.38 173.75 901.38 173.75 879.12 128.01 879.12 128.01 868.74 94.98 868.74 94.98 882.09 63.22 882.09 63.22 954.78 54.32 954.78 54.32 962.95 31.45 962.95 31.45 891.08 -1.58 891.08 -1.58 982.23 1238.42 982.23 1332.39 982.23"/><rect className="cls-6" x="2.95" y="982.85" width="1921.7" height="47.01"/><rect className="cls-7" x="2.95" y="1012.56" width="1921.7" height="67.3"/></svg>